Coordinates
version=1
nRows=14
nColumns=40
inDegrees=yes

Units are S.I. units (second, meters, Newtons, ...)
Angles are in degrees.

endheader
time	pelvis_tilt	pelvis_list	pelvis_rotation	pelvis_tx	pelvis_ty	pelvis_tz	hip_flexion_r	hip_adduction_r	hip_rotation_r	knee_angle_r	knee_angle_r_beta	ankle_angle_r	subtalar_angle_r	mtp_angle_r	hip_flexion_l	hip_adduction_l	hip_rotation_l	knee_angle_l	knee_angle_l_beta	ankle_angle_l	subtalar_angle_l	mtp_angle_l	lumbar_extension	lumbar_bending	lumbar_rotation	arm_flex_r	arm_add_r	arm_rot_r	elbow_flex_r	pro_sup_r	wrist_flex_r	wrist_dev_r	arm_flex_l	arm_add_l	arm_rot_l	elbow_flex_l	pro_sup_l	wrist_flex_l	wrist_dev_l
     54.86828571	     -2.86430770	     -4.63860846	      2.34203987	      0.97586974	      0.91712041	      0.51943630	     15.00769615	      5.85119170	     -7.57584051	     26.80545575	     26.80545575	     16.49023399	     -9.68364440	     -1.17428380	     30.83362180	    -11.05790713	      3.74382381	     60.02168746	     60.02168746	     16.66834431	    -19.57224227	     22.74105909	    -10.46690093	      5.37859237	      0.99209531	     14.25060359	    -15.58016509	    -11.00484107	     34.75029930	     46.41612962	      0.00000000	      0.00000000	      9.79680509	     -8.39618622	     -1.11336605	     29.50896186	     46.45889702	      0.00000000	      0.00000000
     54.88657143	     -2.87451325	     -4.64996549	      2.92599466	      0.97403877	      0.91670902	      0.52041920	     14.80357806	      5.91296551	     -7.91300964	     26.86304959	     26.86304959	     16.73093124	    -10.00675148	     -1.18813499	     31.77115057	    -10.86298587	      3.72448928	     57.83885964	     57.83885964	     16.97469055	    -19.55257968	     22.78358286	    -10.45544157	      5.09634083	      1.66020652	     16.24679155	    -15.81996505	    -11.05742874	     35.90668683	     46.38645387	      0.00000000	      0.00000000	      8.24678972	     -7.99437398	     -1.02855674	     28.65179379	     46.41928933	      0.00000000	      0.00000000
     54.90485714	     -2.85938143	     -4.46981872	      3.52272302	      0.97224566	      0.91684211	      0.52114085	     14.42093114	      5.78277271	     -8.15545357	     26.67514417	     26.67514417	     16.96017888	    -10.28709685	     -1.07129798	     32.37679524	    -10.33649199	      3.71559174	     55.11538492	     55.11538492	     16.91066789	    -19.50307489	     22.35665300	    -10.51502311	      4.66065615	      0.26205466	     19.17189491	    -14.67880765	    -10.97082217	     39.18462608	     46.26354673	      0.00000000	      0.00000000	      6.07096522	     -8.33099721	     -0.86202460	     26.33412376	     46.35783186	      0.00000000	      0.00000000
     54.92314286	     -3.06445654	     -4.42548533	      4.06427910	      0.97031457	      0.91701444	      0.52156857	     14.19583307	      5.70536402	     -8.67065277	     26.31305451	     26.31305451	     17.08564615	    -10.09024171	     -0.90526691	     33.01737373	     -9.85359102	      3.82798886	     51.98078871	     51.98078871	     15.97545523	    -19.42710086	     20.03962033	    -10.45234484	      4.40988278	      0.74824986	     20.04011121	    -15.17739692	     -9.89864191	     44.76455083	     45.97670784	      0.00000000	      0.00000000	      4.96902321	     -8.00507006	     -0.78926349	     24.06323636	     46.32582319	      0.00000000	      0.00000000
     54.94142857	     -3.21435383	     -4.30143228	      4.54111925	      0.96855111	      0.91772124	      0.52175031	     13.72296052	      5.58976998	     -9.03505701	     25.64547453	     25.64547453	     17.18501127	     -9.91829276	     -0.84482977	     33.38266394	     -9.16145230	      4.12884044	     48.67027905	     48.67027905	     15.58582086	    -19.29629435	     19.81272058	    -10.33447448	      4.09043127	      0.66280919	     22.49594221	    -14.98847138	     -9.80657221	     47.27187261	     45.88932995	      0.00000000	      0.00000000	      3.24702941	     -7.95579817	     -0.73425279	     23.05630924	     46.28316709	      0.00000000	      0.00000000
     54.95971429	     -3.53330000	     -4.21051919	      4.99528008	      0.96675263	      0.91830765	      0.52164765	     13.39338575	      5.40221891	     -9.69120190	     24.91349294	     24.91349294	     17.17924287	     -9.22456067	     -1.10018254	     33.68488251	     -8.50517330	      4.46964080	     45.02659139	     45.02659139	     14.04877645	    -19.07927545	     16.60018263	    -10.13730662	      3.86061758	      0.89083051	     23.75465630	    -15.43110780	     -8.87973017	     53.06443103	     45.63367092	      0.00000000	      0.00000000	      1.40461870	     -7.89757471	     -0.75387862	     22.90434993	     46.23339233	      0.00000000	      0.00000000
     54.97800000	     -3.78677835	     -4.05163071	      5.36654740	      0.96506402	      0.91938254	      0.52141390	     12.87280581	      5.25175491	     -9.95554925	     23.96116686	     23.96116686	     17.07869908	     -8.94116613	     -0.96305795	     33.77022564	     -7.72968721	      5.03488620	     41.45440055	     41.45440055	     13.58581390	    -18.61684033	     16.50562159	     -9.92988634	      3.52126068	      1.17922655	     26.17035797	    -15.42565368	     -8.88203786	     55.26719272	     45.56717350	      0.00000000	      0.00000000	     -0.14790973	     -7.90408714	     -0.72019699	     22.33521559	     46.19439960	      0.00000000	      0.00000000
     54.99628571	     -4.00767638	     -4.03761970	      5.74623958	      0.96356499	      0.92039451	      0.52102449	     12.22005375	      5.19941231	    -10.59193984	     22.82805031	     22.82805031	     16.86566941	     -8.19390642	     -1.41676196	     33.55806173	     -7.30710401	      5.34160323	     37.52774126	     37.52774126	     11.40977842	    -18.04396043	     11.77835254	     -9.98257689	      3.42752116	      1.57856801	     27.23435153	    -16.18301721	     -8.15449479	     62.06669632	     45.31260373	      0.00000000	      0.00000000	     -2.12592191	     -7.99826708	     -0.43543083	     23.51518809	     46.05789943	      0.00000000	      0.00000000
     55.01457143	     -4.32639101	     -3.93483407	      6.07355745	      0.96207692	      0.92132333	      0.52049222	     11.70721831	      5.07043186	    -11.01797527	     21.78290321	     21.78290321	     16.74748568	     -7.60028998	     -1.34346391	     33.50656494	     -6.79776013	      5.71452523	     34.12640766	     34.12640766	     11.10828703	    -16.75511017	     11.66827906	     -9.75733667	      3.18171512	      1.45871735	     29.85459163	    -15.92232318	     -8.20154961	     64.78508812	     45.23535503	      0.00000000	      0.00000000	     -3.75768018	     -8.01280650	     -0.33951992	     23.13230576	     46.00376327	      0.00000000	      0.00000000
     55.03285714	     -4.55275538	     -3.97248763	      6.43962484	      0.96077649	      0.92206938	      0.51975835	     11.07069474	      5.06579551	    -11.65829775	     20.70270500	     20.70270500	     16.66958033	     -6.70512597	     -1.44633537	     33.37438309	     -6.54070779	      5.94320369	     31.01690659	     31.01690659	     10.70276270	    -15.11959398	     10.76062291	     -9.69553982	      3.17571198	      1.31060120	     32.12475503	    -15.82254117	     -7.96540667	     69.10028123	     45.09596138	      0.00000000	      0.00000000	     -5.55758246	     -8.03190431	     -0.29611202	     23.67537257	     45.94393582	      0.00000000	      0.00000000
     55.05114286	     -4.91914524	     -4.01718337	      6.73279393	      0.95956979	      0.92232380	      0.51896560	     10.69466447	      5.06210575	    -12.13620610	     19.82753851	     19.82753851	     16.56213723	     -6.04315473	     -1.79083575	     33.27631330	     -6.38259460	      5.92539552	     28.02166367	     28.02166367	      9.91871213	    -13.50094142	      8.78611984	     -9.54714319	      3.12755709	      1.97860171	     33.34973544	    -16.79571738	     -7.59230537	     74.84011674	     44.91796074	      0.00000000	      0.00000000	     -7.29022298	     -8.18235213	     -0.08199944	     25.70806001	     45.84008603	      0.00000000	      0.00000000
     55.06942857	     -5.14518912	     -4.08115048	      7.01719399	      0.95856632	      0.92261650	      0.51809274	     10.15487798	      5.12680563	    -12.53419103	     18.93239402	     18.93239402	     16.40020480	     -5.60464190	     -1.95473950	     32.99711608	     -6.30142459	      5.78890986	     25.36135266	     25.36135266	      9.40122265	    -11.94450183	      7.63807385	     -9.47722860	      3.12144932	      2.33005583	     35.31363527	    -17.08842346	     -7.63800633	     78.98497389	     44.82788255	      0.00000000	      0.00000000	     -8.70260994	     -8.32900596	      0.73748743	     26.59542280	     45.66555156	      0.00000000	      0.00000000
     55.08771429	     -5.36531135	     -4.15104443	      7.29255675	      0.95771031	      0.92266269	      0.51709279	      9.67656054	      5.19850907	    -12.81763111	     18.19415215	     18.19415215	     16.43427602	     -5.22755493	     -1.91274769	     32.72315909	     -6.24407919	      5.54019478	     23.12664338	     23.12664338	      9.29518182	    -10.43202516	      7.70106718	     -9.35403642	      3.10641288	      2.22005647	     37.80675663	    -16.81617971	     -7.55404625	     81.66284520	     44.75600356	      0.00000000	      0.00000000	     -9.82860451	     -8.31639869	      0.91206488	     26.50396315	     45.61673389	      0.00000000	      0.00000000
     55.10600000	     -5.58953359	     -4.33047190	      7.55852878	      0.95702440	      0.92225318	      0.51600627	      9.29313559	      5.34749659	    -13.21990228	     17.63066899	     17.63066899	     16.53366059	     -4.74380390	     -2.02905627	     32.54379994	     -6.35209597	      5.03372862	     21.35970116	     21.35970116	      8.87061700	     -8.96251507	      6.81856908	     -9.29841224	      3.21646918	      2.59033344	     39.47978529	    -17.38918742	     -7.25213353	     86.13592974	     44.64441908	      0.00000000	      0.00000000	    -10.98803322	     -8.42553845	      1.33179611	     27.77198191	     45.52886664	      0.00000000	      0.00000000
